<svg width="18" height="24" viewBox="0 0 18 24" fill="none" xmlns="http://www.w3.org/2000/svg">
<g clip-path="url(#clip0)">
<path fill-rule="evenodd" clip-rule="evenodd" d="M16.1053 9.62785V8.21922V8.12253C16.1053 5.65543 14.7718 3.49202 12.7738 2.26457C11.6787 1.58067 10.3874 1.17841 9 1.17841C7.61258 1.17841 6.32132 1.58067 5.22616 2.2641C3.22816 3.49202 1.89474 5.65543 1.89474 8.12253V8.21922V9.62785H0V23.7095H18V9.62785H16.1053ZM5.21053 8.21922C5.21053 6.14875 6.91058 4.46412 9 4.46412C11.0894 4.46412 12.7895 6.14875 12.7895 8.21922V9.62786H5.21053V8.21922ZM10.1842 17.2812V19.7971H7.81579V17.2812C7.11095 16.8743 6.63158 16.1261 6.63158 15.26C6.63158 13.9641 7.69216 12.9136 9 12.9136C10.3078 12.9136 11.3684 13.9641 11.3684 15.26C11.3684 16.1261 10.8891 16.8743 10.1842 17.2812Z" fill="#00A1F1"/>
</g>
<defs>
<clipPath id="clip0">
<rect width="18" height="23.5679" fill="white" transform="translate(0 0.419739)"/>
</clipPath>
</defs>
</svg>
