<svg width="22" height="24" viewBox="0 0 22 24" fill="none" xmlns="http://www.w3.org/2000/svg">
<g clip-path="url(#clip0)">
<path fill-rule="evenodd" clip-rule="evenodd" d="M21.5798 20.0933L16.3388 14.8519C17.3571 13.3959 17.9592 11.6274 17.9592 9.71516C17.9592 4.75573 13.939 0.735565 8.97959 0.735565C4.02016 0.735565 0 4.75573 0 9.71516C0 14.6746 4.02016 18.6947 8.97959 18.6947C10.8913 18.6947 12.6603 18.0927 14.1164 17.0744L19.3578 22.3158L21.5798 20.0933ZM3.14286 9.71516C3.14286 6.49687 5.76086 3.87842 8.97959 3.87842C12.1979 3.87842 14.8163 6.49687 14.8163 9.71516C14.8163 12.9334 12.1979 15.5519 8.97959 15.5519C5.76086 15.5519 3.14286 12.9334 3.14286 9.71516Z" fill="#00A1F1"/>
</g>
<defs>
<clipPath id="clip0">
<rect width="22" height="22.5432" fill="white" transform="translate(0 0.469147)"/>
</clipPath>
</defs>
</svg>
