<svg width="18" height="18" viewBox="0 0 18 18" fill="none" xmlns="http://www.w3.org/2000/svg">
<path fill-rule="evenodd" clip-rule="evenodd" d="M9 18C4.03733 18 0 13.9623 0 9C0 4.03733 4.03733 0 9 0C13.9627 0 18 4.03733 18 9C18 13.9623 13.9627 18 9 18ZM9 1.00167C4.589 1.00167 1 4.58967 1 9C1 13.4103 4.589 16.9983 9 16.9983C13.411 16.9983 17 13.4103 17 9C17 4.58967 13.411 1.00167 9 1.00167Z" fill="#008ED5"/>
<path fill-rule="evenodd" clip-rule="evenodd" d="M10.1434 13.674V8.04201V6.99701H6.80469V7.99834H7.80635V13.674H6.80469V14.6753H11.145V13.674H10.1434Z" fill="#008ED5"/>
<path fill-rule="evenodd" clip-rule="evenodd" d="M10.3624 4.75835C10.3624 5.51535 9.7497 6.12635 8.9937 6.12635C8.23804 6.12635 7.62604 5.51535 7.62604 4.75835C7.62604 4.00135 8.23837 3.39035 8.9937 3.39035C9.7497 3.39035 10.3624 4.00135 10.3624 4.75835Z" fill="#008ED5"/>
</svg>
