<svg width="38" height="40" viewBox="0 0 38 40" fill="none" xmlns="http://www.w3.org/2000/svg">
<path fill-rule="evenodd" clip-rule="evenodd" d="M30.1602 24.7165C29.2459 26.9376 27.7033 28.8444 25.7679 30.1814C23.8295 31.5227 21.5181 32.2942 18.9995 32.2942C17.3176 32.2942 15.7331 31.9498 14.291 31.3253C12.1169 30.381 10.2642 28.8058 8.95307 26.8239C7.64608 24.8409 6.88891 22.4706 6.88891 19.891C6.88891 18.1624 7.22613 16.5399 7.83982 15.0538C8.75199 12.838 10.2998 10.9269 12.2279 9.59847C14.1684 8.25396 16.4839 7.47494 18.9995 7.47494C20.6824 7.47494 22.2638 7.82153 23.7101 8.44818C25.8831 9.39031 27.7379 10.9644 29.0448 12.9474C30.3529 14.9325 31.108 17.305 31.108 19.891C31.108 21.6143 30.7718 23.2314 30.1602 24.7165ZM29.6261 3.74936C26.5974 1.64729 22.9246 0.419739 18.9995 0.419739C16.3897 0.419739 13.8804 0.962694 11.6016 1.94559C8.18856 3.43067 5.29392 5.89758 3.24547 9.00294C1.20226 12.1008 0 15.865 0 19.891C0 22.5661 0.53201 25.136 1.49549 27.4666C2.94072 30.9637 5.34314 33.9295 8.37498 36.0305C11.4026 38.1272 15.0775 39.358 18.9995 39.358C21.6145 39.358 24.1196 38.8054 26.3974 37.8225C29.8072 36.3396 32.7061 33.8759 34.7503 30.7759C36.7967 27.6705 38 23.9106 38 19.891C38 17.2074 37.4659 14.6374 36.5045 12.3079C35.0561 8.80872 32.6579 5.84393 29.6261 3.74936Z" fill="#00A1F1"/>
<path fill-rule="evenodd" clip-rule="evenodd" d="M18.8584 13.7408C15.6265 13.7408 13 16.4276 13 19.7455C13 23.0601 15.6265 25.7459 18.8584 25.7459C22.0976 25.7459 24.7137 23.0601 24.7137 19.7455C24.7137 16.4276 22.0976 13.7408 18.8584 13.7408Z" fill="#E42469"/>
</svg>
