<svg width="21" height="20" viewBox="0 0 21 20" fill="none" xmlns="http://www.w3.org/2000/svg">
<path fill-rule="evenodd" clip-rule="evenodd" d="M20.2098 17.598L15.4453 12.8331C16.371 11.5094 16.9183 9.90163 16.9183 8.16327C16.9183 3.65469 13.2636 0 8.75506 0C4.24649 0 0.591797 3.65469 0.591797 8.16327C0.591797 12.6718 4.24649 16.3265 8.75506 16.3265C10.493 16.3265 12.1012 15.7792 13.4249 14.8535L18.1898 19.6184L20.2098 17.598ZM3.44894 8.16326C3.44894 5.23755 5.82894 2.85714 8.75506 2.85714C11.6808 2.85714 14.0612 5.23755 14.0612 8.16326C14.0612 11.089 11.6808 13.4694 8.75506 13.4694C5.82894 13.4694 3.44894 11.089 3.44894 8.16326Z" fill="#6B7886"/>
</svg>
