<svg width="22" height="23" viewBox="0 0 22 23" fill="none" xmlns="http://www.w3.org/2000/svg">
<g clip-path="url(#clip0)">
<path fill-rule="evenodd" clip-rule="evenodd" d="M11 3.26236C15.549 3.26236 19.25 7.05478 19.25 11.7161C19.25 16.3773 15.549 20.1698 11 20.1698C6.45104 20.1698 2.75 16.3773 2.75 11.7161C2.75 7.05478 6.45104 3.26236 11 3.26236ZM11 0.444458C4.92479 0.444458 0 5.49085 0 11.7161C0 17.9413 4.92479 22.9877 11 22.9877C17.0752 22.9877 22 17.9413 22 11.7161C22 5.49085 17.0752 0.444458 11 0.444458Z" fill="#00A1F1"/>
<path fill-rule="evenodd" clip-rule="evenodd" d="M16.5 10.3411H12.375V6.21606H9.625V10.3411H5.5V13.0911H9.625V17.2161H12.375V13.0911H16.5V10.3411Z" fill="#00A1F1"/>
</g>
<defs>
<clipPath id="clip0">
<rect width="22" height="22.5432" fill="white" transform="translate(0 0.444458)"/>
</clipPath>
</defs>
</svg>
